<svg viewBox="0 0 2400 1600" height="400" width="600" xmlns:xlink="http://www.w3.org/1999/xlink" xmlns="http://www.w3.org/2000/svg"><defs><clipPath id="clip950"><rect height="1600" width="2400" y="0" x="0"></rect></clipPath></defs><path fill-opacity="1" fill-rule="evenodd" fill="#ffffff" d="M0 1600 L2400 1600 L2400 0 L0 0  Z" clip-path="url(#clip950)"></path><defs><clipPath id="clip951"><rect height="1600" width="1681" y="0" x="480"></rect></clipPath></defs><path fill-opacity="1" fill-rule="evenodd" fill="#ffffff" d="M193.936 1423.18 L2352.76 1423.18 L2352.76 123.472 L193.936 123.472  Z" clip-path="url(#clip950)"></path><defs><clipPath id="clip952"><rect height="1301" width="2160" y="123" x="193"></rect></clipPath></defs><polyline points="193.936,1423.18 193.936,123.472" style="stroke:#000000; stroke-linecap:round; stroke-linejoin:round; stroke-width:2; stroke-opacity:0.1; fill:none" clip-path="url(#clip952)"></polyline><polyline points="625.7,1423.18 625.7,123.472" style="stroke:#000000; stroke-linecap:round; stroke-linejoin:round; stroke-width:2; stroke-opacity:0.1; fill:none" clip-path="url(#clip952)"></polyline><polyline points="1057.46,1423.18 1057.46,123.472" style="stroke:#000000; stroke-linecap:round; stroke-linejoin:round; stroke-width:2; stroke-opacity:0.1; fill:none" clip-path="url(#clip952)"></polyline><polyline points="1489.23,1423.18 1489.23,123.472" style="stroke:#000000; stroke-linecap:round; stroke-linejoin:round; stroke-width:2; stroke-opacity:0.1; fill:none" clip-path="url(#clip952)"></polyline><polyline points="1920.99,1423.18 1920.99,123.472" style="stroke:#000000; stroke-linecap:round; stroke-linejoin:round; stroke-width:2; stroke-opacity:0.1; fill:none" clip-path="url(#clip952)"></polyline><polyline points="2352.76,1423.18 2352.76,123.472" style="stroke:#000000; stroke-linecap:round; stroke-linejoin:round; stroke-width:2; stroke-opacity:0.1; fill:none" clip-path="url(#clip952)"></polyline><polyline points="193.936,1423.18 2352.76,1423.18" style="stroke:#000000; stroke-linecap:round; stroke-linejoin:round; stroke-width:4; stroke-opacity:1; fill:none" clip-path="url(#clip950)"></polyline><polyline points="193.936,1423.18 193.936,1404.28" style="stroke:#000000; stroke-linecap:round; stroke-linejoin:round; stroke-width:4; stroke-opacity:1; fill:none" clip-path="url(#clip950)"></polyline><polyline points="625.7,1423.18 625.7,1404.28" style="stroke:#000000; stroke-linecap:round; stroke-linejoin:round; stroke-width:4; stroke-opacity:1; fill:none" clip-path="url(#clip950)"></polyline><polyline points="1057.46,1423.18 1057.46,1404.28" style="stroke:#000000; stroke-linecap:round; stroke-linejoin:round; stroke-width:4; stroke-opacity:1; fill:none" clip-path="url(#clip950)"></polyline><polyline points="1489.23,1423.18 1489.23,1404.28" style="stroke:#000000; stroke-linecap:round; stroke-linejoin:round; stroke-width:4; stroke-opacity:1; fill:none" clip-path="url(#clip950)"></polyline><polyline points="1920.99,1423.18 1920.99,1404.28" style="stroke:#000000; stroke-linecap:round; stroke-linejoin:round; stroke-width:4; stroke-opacity:1; fill:none" clip-path="url(#clip950)"></polyline><polyline points="2352.76,1423.18 2352.76,1404.28" style="stroke:#000000; stroke-linecap:round; stroke-linejoin:round; stroke-width:4; stroke-opacity:1; fill:none" clip-path="url(#clip950)"></polyline><path fill-opacity="1" fill-rule="nonzero" fill="#000000" d="M193.936 1454.1 Q190.325 1454.1 188.496 1457.66 Q186.691 1461.2 186.691 1468.33 Q186.691 1475.44 188.496 1479.01 Q190.325 1482.55 193.936 1482.55 Q197.57 1482.55 199.376 1479.01 Q201.204 1475.44 201.204 1468.33 Q201.204 1461.2 199.376 1457.66 Q197.57 1454.1 193.936 1454.1 M193.936 1450.39 Q199.746 1450.39 202.802 1455 Q205.88 1459.58 205.88 1468.33 Q205.88 1477.06 202.802 1481.67 Q199.746 1486.25 193.936 1486.25 Q188.126 1486.25 185.047 1481.67 Q181.992 1477.06 181.992 1468.33 Q181.992 1459.58 185.047 1455 Q188.126 1450.39 193.936 1450.39 Z" clip-path="url(#clip950)"></path><path fill-opacity="1" fill-rule="nonzero" fill="#000000" d="M616.082 1481.64 L623.721 1481.64 L623.721 1455.28 L615.411 1456.95 L615.411 1452.69 L623.675 1451.02 L628.35 1451.02 L628.35 1481.64 L635.989 1481.64 L635.989 1485.58 L616.082 1485.58 L616.082 1481.64 Z" clip-path="url(#clip950)"></path><path fill-opacity="1" fill-rule="nonzero" fill="#000000" d="M1052.12 1481.64 L1068.44 1481.64 L1068.44 1485.58 L1046.49 1485.58 L1046.49 1481.64 Q1049.15 1478.89 1053.74 1474.26 Q1058.34 1469.61 1059.52 1468.27 Q1061.77 1465.74 1062.65 1464.01 Q1063.55 1462.25 1063.55 1460.56 Q1063.55 1457.8 1061.61 1456.07 Q1059.69 1454.33 1056.58 1454.33 Q1054.39 1454.33 1051.93 1455.09 Q1049.5 1455.86 1046.72 1457.41 L1046.72 1452.69 Q1049.55 1451.55 1052 1450.97 Q1054.45 1450.39 1056.49 1450.39 Q1061.86 1450.39 1065.06 1453.08 Q1068.25 1455.77 1068.25 1460.26 Q1068.25 1462.39 1067.44 1464.31 Q1066.65 1466.2 1064.55 1468.8 Q1063.97 1469.47 1060.87 1472.69 Q1057.76 1475.88 1052.12 1481.64 Z" clip-path="url(#clip950)"></path><path fill-opacity="1" fill-rule="nonzero" fill="#000000" d="M1493.48 1466.95 Q1496.83 1467.66 1498.71 1469.93 Q1500.61 1472.2 1500.61 1475.53 Q1500.61 1480.65 1497.09 1483.45 Q1493.57 1486.25 1487.09 1486.25 Q1484.91 1486.25 1482.6 1485.81 Q1480.3 1485.39 1477.85 1484.54 L1477.85 1480.02 Q1479.8 1481.16 1482.11 1481.74 Q1484.42 1482.32 1486.95 1482.32 Q1491.35 1482.32 1493.64 1480.58 Q1495.95 1478.84 1495.95 1475.53 Q1495.95 1472.48 1493.8 1470.77 Q1491.67 1469.03 1487.85 1469.03 L1483.82 1469.03 L1483.82 1465.19 L1488.04 1465.19 Q1491.48 1465.19 1493.31 1463.82 Q1495.14 1462.43 1495.14 1459.84 Q1495.14 1457.18 1493.24 1455.77 Q1491.37 1454.33 1487.85 1454.33 Q1485.93 1454.33 1483.73 1454.75 Q1481.53 1455.16 1478.89 1456.04 L1478.89 1451.88 Q1481.55 1451.14 1483.87 1450.77 Q1486.21 1450.39 1488.27 1450.39 Q1493.59 1450.39 1496.69 1452.83 Q1499.8 1455.23 1499.8 1459.35 Q1499.8 1462.22 1498.15 1464.21 Q1496.51 1466.18 1493.48 1466.95 Z" clip-path="url(#clip950)"></path><path fill-opacity="1" fill-rule="nonzero" fill="#000000" d="M1924 1455.09 L1912.2 1473.54 L1924 1473.54 L1924 1455.09 M1922.77 1451.02 L1928.65 1451.02 L1928.65 1473.54 L1933.58 1473.54 L1933.58 1477.43 L1928.65 1477.43 L1928.65 1485.58 L1924 1485.58 L1924 1477.43 L1908.4 1477.43 L1908.4 1472.92 L1922.77 1451.02 Z" clip-path="url(#clip950)"></path><path fill-opacity="1" fill-rule="nonzero" fill="#000000" d="M2343.03 1451.02 L2361.39 1451.02 L2361.39 1454.96 L2347.32 1454.96 L2347.32 1463.43 Q2348.33 1463.08 2349.35 1462.92 Q2350.37 1462.73 2351.39 1462.73 Q2357.18 1462.73 2360.56 1465.9 Q2363.94 1469.08 2363.94 1474.49 Q2363.94 1480.07 2360.46 1483.17 Q2356.99 1486.25 2350.67 1486.25 Q2348.5 1486.25 2346.23 1485.88 Q2343.98 1485.51 2341.58 1484.77 L2341.58 1480.07 Q2343.66 1481.2 2345.88 1481.76 Q2348.1 1482.32 2350.58 1482.32 Q2354.58 1482.32 2356.92 1480.21 Q2359.26 1478.1 2359.26 1474.49 Q2359.26 1470.88 2356.92 1468.77 Q2354.58 1466.67 2350.58 1466.67 Q2348.71 1466.67 2346.83 1467.08 Q2344.98 1467.5 2343.03 1468.38 L2343.03 1451.02 Z" clip-path="url(#clip950)"></path><path fill-opacity="1" fill-rule="nonzero" fill="#000000" d="M1272.41 1522.27 L1272.41 1532.4 L1284.47 1532.4 L1284.47 1536.95 L1272.41 1536.95 L1272.41 1556.3 Q1272.41 1560.66 1273.58 1561.9 Q1274.79 1563.14 1278.45 1563.14 L1284.47 1563.14 L1284.47 1568.04 L1278.45 1568.04 Q1271.67 1568.04 1269.1 1565.53 Q1266.52 1562.98 1266.52 1556.3 L1266.52 1536.95 L1262.22 1536.95 L1262.22 1532.4 L1266.52 1532.4 L1266.52 1522.27 L1272.41 1522.27 Z" clip-path="url(#clip950)"></path><polyline points="193.936,1404.78 2352.76,1404.78" style="stroke:#000000; stroke-linecap:round; stroke-linejoin:round; stroke-width:2; stroke-opacity:0.1; fill:none" clip-path="url(#clip952)"></polyline><polyline points="193.936,1149.35 2352.76,1149.35" style="stroke:#000000; stroke-linecap:round; stroke-linejoin:round; stroke-width:2; stroke-opacity:0.1; fill:none" clip-path="url(#clip952)"></polyline><polyline points="193.936,893.913 2352.76,893.913" style="stroke:#000000; stroke-linecap:round; stroke-linejoin:round; stroke-width:2; stroke-opacity:0.1; fill:none" clip-path="url(#clip952)"></polyline><polyline points="193.936,638.481 2352.76,638.481" style="stroke:#000000; stroke-linecap:round; stroke-linejoin:round; stroke-width:2; stroke-opacity:0.1; fill:none" clip-path="url(#clip952)"></polyline><polyline points="193.936,383.049 2352.76,383.049" style="stroke:#000000; stroke-linecap:round; stroke-linejoin:round; stroke-width:2; stroke-opacity:0.1; fill:none" clip-path="url(#clip952)"></polyline><polyline points="193.936,127.616 2352.76,127.616" style="stroke:#000000; stroke-linecap:round; stroke-linejoin:round; stroke-width:2; stroke-opacity:0.1; fill:none" clip-path="url(#clip952)"></polyline><polyline points="193.936,1423.18 193.936,123.472" style="stroke:#000000; stroke-linecap:round; stroke-linejoin:round; stroke-width:4; stroke-opacity:1; fill:none" clip-path="url(#clip950)"></polyline><polyline points="193.936,1404.78 212.834,1404.78" style="stroke:#000000; stroke-linecap:round; stroke-linejoin:round; stroke-width:4; stroke-opacity:1; fill:none" clip-path="url(#clip950)"></polyline><polyline points="193.936,1149.35 212.834,1149.35" style="stroke:#000000; stroke-linecap:round; stroke-linejoin:round; stroke-width:4; stroke-opacity:1; fill:none" clip-path="url(#clip950)"></polyline><polyline points="193.936,893.913 212.834,893.913" style="stroke:#000000; stroke-linecap:round; stroke-linejoin:round; stroke-width:4; stroke-opacity:1; fill:none" clip-path="url(#clip950)"></polyline><polyline points="193.936,638.481 212.834,638.481" style="stroke:#000000; stroke-linecap:round; stroke-linejoin:round; stroke-width:4; stroke-opacity:1; fill:none" clip-path="url(#clip950)"></polyline><polyline points="193.936,383.049 212.834,383.049" style="stroke:#000000; stroke-linecap:round; stroke-linejoin:round; stroke-width:4; stroke-opacity:1; fill:none" clip-path="url(#clip950)"></polyline><polyline points="193.936,127.616 212.834,127.616" style="stroke:#000000; stroke-linecap:round; stroke-linejoin:round; stroke-width:4; stroke-opacity:1; fill:none" clip-path="url(#clip950)"></polyline><path fill-opacity="1" fill-rule="nonzero" fill="#000000" d="M51.9875 1405.23 L81.6633 1405.23 L81.6633 1409.16 L51.9875 1409.16 L51.9875 1405.23 Z" clip-path="url(#clip950)"></path><path fill-opacity="1" fill-rule="nonzero" fill="#000000" d="M92.566 1418.12 L100.205 1418.12 L100.205 1391.76 L91.8947 1393.42 L91.8947 1389.16 L100.159 1387.5 L104.834 1387.5 L104.834 1418.12 L112.473 1418.12 L112.473 1422.06 L92.566 1422.06 L92.566 1418.12 Z" clip-path="url(#clip950)"></path><path fill-opacity="1" fill-rule="nonzero" fill="#000000" d="M121.918 1416.18 L126.802 1416.18 L126.802 1422.06 L121.918 1422.06 L121.918 1416.18 Z" clip-path="url(#clip950)"></path><path fill-opacity="1" fill-rule="nonzero" fill="#000000" d="M137.033 1387.5 L155.39 1387.5 L155.39 1391.43 L141.316 1391.43 L141.316 1399.91 Q142.334 1399.56 143.353 1399.4 Q144.371 1399.21 145.39 1399.21 Q151.177 1399.21 154.556 1402.38 Q157.936 1405.55 157.936 1410.97 Q157.936 1416.55 154.464 1419.65 Q150.992 1422.73 144.672 1422.73 Q142.496 1422.73 140.228 1422.36 Q137.982 1421.99 135.575 1421.25 L135.575 1416.55 Q137.658 1417.68 139.881 1418.24 Q142.103 1418.79 144.58 1418.79 Q148.584 1418.79 150.922 1416.69 Q153.26 1414.58 153.26 1410.97 Q153.26 1407.36 150.922 1405.25 Q148.584 1403.15 144.58 1403.15 Q142.705 1403.15 140.83 1403.56 Q138.978 1403.98 137.033 1404.86 L137.033 1387.5 Z" clip-path="url(#clip950)"></path><path fill-opacity="1" fill-rule="nonzero" fill="#000000" d="M50.9921 1149.8 L80.6679 1149.8 L80.6679 1153.73 L50.9921 1153.73 L50.9921 1149.8 Z" clip-path="url(#clip950)"></path><path fill-opacity="1" fill-rule="nonzero" fill="#000000" d="M91.5706 1162.69 L99.2095 1162.69 L99.2095 1136.32 L90.8993 1137.99 L90.8993 1133.73 L99.1632 1132.07 L103.839 1132.07 L103.839 1162.69 L111.478 1162.69 L111.478 1166.63 L91.5706 1166.63 L91.5706 1162.69 Z" clip-path="url(#clip950)"></path><path fill-opacity="1" fill-rule="nonzero" fill="#000000" d="M120.922 1160.75 L125.807 1160.75 L125.807 1166.63 L120.922 1166.63 L120.922 1160.75 Z" clip-path="url(#clip950)"></path><path fill-opacity="1" fill-rule="nonzero" fill="#000000" d="M145.992 1135.14 Q142.381 1135.14 140.552 1138.71 Q138.746 1142.25 138.746 1149.38 Q138.746 1156.49 140.552 1160.05 Q142.381 1163.59 145.992 1163.59 Q149.626 1163.59 151.431 1160.05 Q153.26 1156.49 153.26 1149.38 Q153.26 1142.25 151.431 1138.71 Q149.626 1135.14 145.992 1135.14 M145.992 1131.44 Q151.802 1131.44 154.857 1136.05 Q157.936 1140.63 157.936 1149.38 Q157.936 1158.11 154.857 1162.71 Q151.802 1167.3 145.992 1167.3 Q140.181 1167.3 137.103 1162.71 Q134.047 1158.11 134.047 1149.38 Q134.047 1140.63 137.103 1136.05 Q140.181 1131.44 145.992 1131.44 Z" clip-path="url(#clip950)"></path><path fill-opacity="1" fill-rule="nonzero" fill="#000000" d="M51.9875 894.365 L81.6633 894.365 L81.6633 898.3 L51.9875 898.3 L51.9875 894.365 Z" clip-path="url(#clip950)"></path><path fill-opacity="1" fill-rule="nonzero" fill="#000000" d="M101.756 879.712 Q98.1447 879.712 96.316 883.277 Q94.5104 886.818 94.5104 893.948 Q94.5104 901.055 96.316 904.619 Q98.1447 908.161 101.756 908.161 Q105.39 908.161 107.196 904.619 Q109.024 901.055 109.024 893.948 Q109.024 886.818 107.196 883.277 Q105.39 879.712 101.756 879.712 M101.756 876.008 Q107.566 876.008 110.621 880.615 Q113.7 885.198 113.7 893.948 Q113.7 902.675 110.621 907.281 Q107.566 911.865 101.756 911.865 Q95.9456 911.865 92.8669 907.281 Q89.8114 902.675 89.8114 893.948 Q89.8114 885.198 92.8669 880.615 Q95.9456 876.008 101.756 876.008 Z" clip-path="url(#clip950)"></path><path fill-opacity="1" fill-rule="nonzero" fill="#000000" d="M121.918 905.314 L126.802 905.314 L126.802 911.193 L121.918 911.193 L121.918 905.314 Z" clip-path="url(#clip950)"></path><path fill-opacity="1" fill-rule="nonzero" fill="#000000" d="M137.033 876.633 L155.39 876.633 L155.39 880.569 L141.316 880.569 L141.316 889.041 Q142.334 888.693 143.353 888.531 Q144.371 888.346 145.39 888.346 Q151.177 888.346 154.556 891.518 Q157.936 894.689 157.936 900.105 Q157.936 905.684 154.464 908.786 Q150.992 911.865 144.672 911.865 Q142.496 911.865 140.228 911.494 Q137.982 911.124 135.575 910.383 L135.575 905.684 Q137.658 906.818 139.881 907.374 Q142.103 907.929 144.58 907.929 Q148.584 907.929 150.922 905.823 Q153.26 903.717 153.26 900.105 Q153.26 896.494 150.922 894.388 Q148.584 892.281 144.58 892.281 Q142.705 892.281 140.83 892.698 Q138.978 893.115 137.033 893.994 L137.033 876.633 Z" clip-path="url(#clip950)"></path><path fill-opacity="1" fill-rule="nonzero" fill="#000000" d="M100.76 624.28 Q97.1493 624.28 95.3206 627.844 Q93.515 631.386 93.515 638.516 Q93.515 645.622 95.3206 649.187 Q97.1493 652.729 100.76 652.729 Q104.395 652.729 106.2 649.187 Q108.029 645.622 108.029 638.516 Q108.029 631.386 106.2 627.844 Q104.395 624.28 100.76 624.28 M100.76 620.576 Q106.571 620.576 109.626 625.182 Q112.705 629.766 112.705 638.516 Q112.705 647.242 109.626 651.849 Q106.571 656.432 100.76 656.432 Q94.9502 656.432 91.8715 651.849 Q88.816 647.242 88.816 638.516 Q88.816 629.766 91.8715 625.182 Q94.9502 620.576 100.76 620.576 Z" clip-path="url(#clip950)"></path><path fill-opacity="1" fill-rule="nonzero" fill="#000000" d="M120.922 649.881 L125.807 649.881 L125.807 655.761 L120.922 655.761 L120.922 649.881 Z" clip-path="url(#clip950)"></path><path fill-opacity="1" fill-rule="nonzero" fill="#000000" d="M145.992 624.28 Q142.381 624.28 140.552 627.844 Q138.746 631.386 138.746 638.516 Q138.746 645.622 140.552 649.187 Q142.381 652.729 145.992 652.729 Q149.626 652.729 151.431 649.187 Q153.26 645.622 153.26 638.516 Q153.26 631.386 151.431 627.844 Q149.626 624.28 145.992 624.28 M145.992 620.576 Q151.802 620.576 154.857 625.182 Q157.936 629.766 157.936 638.516 Q157.936 647.242 154.857 651.849 Q151.802 656.432 145.992 656.432 Q140.181 656.432 137.103 651.849 Q134.047 647.242 134.047 638.516 Q134.047 629.766 137.103 625.182 Q140.181 620.576 145.992 620.576 Z" clip-path="url(#clip950)"></path><path fill-opacity="1" fill-rule="nonzero" fill="#000000" d="M101.756 368.847 Q98.1447 368.847 96.316 372.412 Q94.5104 375.954 94.5104 383.083 Q94.5104 390.19 96.316 393.755 Q98.1447 397.296 101.756 397.296 Q105.39 397.296 107.196 393.755 Q109.024 390.19 109.024 383.083 Q109.024 375.954 107.196 372.412 Q105.39 368.847 101.756 368.847 M101.756 365.144 Q107.566 365.144 110.621 369.75 Q113.7 374.333 113.7 383.083 Q113.7 391.81 110.621 396.417 Q107.566 401 101.756 401 Q95.9456 401 92.8669 396.417 Q89.8114 391.81 89.8114 383.083 Q89.8114 374.333 92.8669 369.75 Q95.9456 365.144 101.756 365.144 Z" clip-path="url(#clip950)"></path><path fill-opacity="1" fill-rule="nonzero" fill="#000000" d="M121.918 394.449 L126.802 394.449 L126.802 400.329 L121.918 400.329 L121.918 394.449 Z" clip-path="url(#clip950)"></path><path fill-opacity="1" fill-rule="nonzero" fill="#000000" d="M137.033 365.769 L155.39 365.769 L155.39 369.704 L141.316 369.704 L141.316 378.176 Q142.334 377.829 143.353 377.667 Q144.371 377.481 145.39 377.481 Q151.177 377.481 154.556 380.653 Q157.936 383.824 157.936 389.241 Q157.936 394.819 154.464 397.921 Q150.992 401 144.672 401 Q142.496 401 140.228 400.63 Q137.982 400.259 135.575 399.518 L135.575 394.819 Q137.658 395.954 139.881 396.509 Q142.103 397.065 144.58 397.065 Q148.584 397.065 150.922 394.958 Q153.26 392.852 153.26 389.241 Q153.26 385.63 150.922 383.523 Q148.584 381.417 144.58 381.417 Q142.705 381.417 140.83 381.833 Q138.978 382.25 137.033 383.13 L137.033 365.769 Z" clip-path="url(#clip950)"></path><path fill-opacity="1" fill-rule="nonzero" fill="#000000" d="M91.5706 140.961 L99.2095 140.961 L99.2095 114.595 L90.8993 116.262 L90.8993 112.003 L99.1632 110.336 L103.839 110.336 L103.839 140.961 L111.478 140.961 L111.478 144.896 L91.5706 144.896 L91.5706 140.961 Z" clip-path="url(#clip950)"></path><path fill-opacity="1" fill-rule="nonzero" fill="#000000" d="M120.922 139.017 L125.807 139.017 L125.807 144.896 L120.922 144.896 L120.922 139.017 Z" clip-path="url(#clip950)"></path><path fill-opacity="1" fill-rule="nonzero" fill="#000000" d="M145.992 113.415 Q142.381 113.415 140.552 116.98 Q138.746 120.521 138.746 127.651 Q138.746 134.757 140.552 138.322 Q142.381 141.864 145.992 141.864 Q149.626 141.864 151.431 138.322 Q153.26 134.757 153.26 127.651 Q153.26 120.521 151.431 116.98 Q149.626 113.415 145.992 113.415 M145.992 109.711 Q151.802 109.711 154.857 114.318 Q157.936 118.901 157.936 127.651 Q157.936 136.378 154.857 140.984 Q151.802 145.567 145.992 145.567 Q140.181 145.567 137.103 140.984 Q134.047 136.378 134.047 127.651 Q134.047 118.901 137.103 114.318 Q140.181 109.711 145.992 109.711 Z" clip-path="url(#clip950)"></path><path fill-opacity="1" fill-rule="nonzero" fill="#000000" d="M790.904 63.9476 L790.904 47.7034 L777.536 47.7034 L777.536 40.9789 L799.005 40.9789 L799.005 66.9452 Q794.266 70.3075 788.554 72.0494 Q782.842 73.7508 776.361 73.7508 Q762.183 73.7508 754.162 65.4869 Q746.182 57.1826 746.182 42.3968 Q746.182 27.5705 754.162 19.3066 Q762.183 11.0023 776.361 11.0023 Q782.275 11.0023 787.582 12.4606 Q792.929 13.9189 797.425 16.7545 L797.425 25.464 Q792.888 21.6156 787.784 19.6712 Q782.68 17.7268 777.049 17.7268 Q765.95 17.7268 760.36 23.9246 Q754.81 30.1225 754.81 42.3968 Q754.81 54.6305 760.36 60.8284 Q765.95 67.0263 777.049 67.0263 Q781.384 67.0263 784.787 66.2971 Q788.189 65.5274 790.904 63.9476 Z" clip-path="url(#clip950)"></path><path fill-opacity="1" fill-rule="nonzero" fill="#000000" d="M852.437 48.0275 L852.437 51.6733 L818.166 51.6733 Q818.652 59.3701 822.784 63.421 Q826.957 67.4314 834.37 67.4314 Q838.664 67.4314 842.674 66.3781 Q846.725 65.3249 850.695 63.2184 L850.695 70.267 Q846.684 71.9684 842.472 72.8596 Q838.259 73.7508 833.924 73.7508 Q823.068 73.7508 816.708 67.4314 Q810.388 61.1119 810.388 50.3365 Q810.388 39.1965 816.384 32.6746 Q822.42 26.1121 832.628 26.1121 Q841.783 26.1121 847.09 32.0264 Q852.437 37.9003 852.437 48.0275 M844.983 45.84 Q844.902 39.7232 841.54 36.0774 Q838.218 32.4315 832.709 32.4315 Q826.47 32.4315 822.703 35.9558 Q818.976 39.4801 818.409 45.8805 L844.983 45.84 Z" clip-path="url(#clip950)"></path><path fill-opacity="1" fill-rule="nonzero" fill="#000000" d="M882.251 32.4315 Q876.256 32.4315 872.772 37.1306 Q869.289 41.7891 869.289 49.9314 Q869.289 58.0738 872.732 62.7728 Q876.216 67.4314 882.251 67.4314 Q888.206 67.4314 891.69 62.7323 Q895.174 58.0333 895.174 49.9314 Q895.174 41.8701 891.69 37.1711 Q888.206 32.4315 882.251 32.4315 M882.251 26.1121 Q891.974 26.1121 897.523 32.4315 Q903.073 38.7509 903.073 49.9314 Q903.073 61.0714 897.523 67.4314 Q891.974 73.7508 882.251 73.7508 Q872.489 73.7508 866.939 67.4314 Q861.43 61.0714 861.43 49.9314 Q861.43 38.7509 866.939 32.4315 Q872.489 26.1121 882.251 26.1121 Z" clip-path="url(#clip950)"></path><path fill-opacity="1" fill-rule="nonzero" fill="#000000" d="M945.283 34.0924 L945.283 9.54393 L952.737 9.54393 L952.737 72.576 L945.283 72.576 L945.283 65.7705 Q942.934 69.8214 939.329 71.8063 Q935.764 73.7508 930.741 73.7508 Q922.517 73.7508 917.332 67.1883 Q912.188 60.6258 912.188 49.9314 Q912.188 39.2371 917.332 32.6746 Q922.517 26.1121 930.741 26.1121 Q935.764 26.1121 939.329 28.0971 Q942.934 30.0415 945.283 34.0924 M919.884 49.9314 Q919.884 58.1548 923.247 62.8538 Q926.649 67.5124 932.564 67.5124 Q938.478 67.5124 941.881 62.8538 Q945.283 58.1548 945.283 49.9314 Q945.283 41.7081 941.881 37.0496 Q938.478 32.3505 932.564 32.3505 Q926.649 32.3505 923.247 37.0496 Q919.884 41.7081 919.884 49.9314 Z" clip-path="url(#clip950)"></path><path fill-opacity="1" fill-rule="nonzero" fill="#000000" d="M1006.9 48.0275 L1006.9 51.6733 L972.627 51.6733 Q973.113 59.3701 977.245 63.421 Q981.418 67.4314 988.831 67.4314 Q993.125 67.4314 997.135 66.3781 Q1001.19 65.3249 1005.16 63.2184 L1005.16 70.267 Q1001.15 71.9684 996.933 72.8596 Q992.72 73.7508 988.385 73.7508 Q977.529 73.7508 971.169 67.4314 Q964.849 61.1119 964.849 50.3365 Q964.849 39.1965 970.845 32.6746 Q976.881 26.1121 987.089 26.1121 Q996.244 26.1121 1001.55 32.0264 Q1006.9 37.9003 1006.9 48.0275 M999.444 45.84 Q999.363 39.7232 996.001 36.0774 Q992.679 32.4315 987.17 32.4315 Q980.931 32.4315 977.164 35.9558 Q973.437 39.4801 972.87 45.8805 L999.444 45.84 Z" clip-path="url(#clip950)"></path><path fill-opacity="1" fill-rule="nonzero" fill="#000000" d="M1048.05 28.5427 L1048.05 35.5912 Q1044.9 33.9709 1041.49 33.1607 Q1038.09 32.3505 1034.44 32.3505 Q1028.89 32.3505 1026.1 34.0519 Q1023.34 35.7533 1023.34 39.156 Q1023.34 41.7486 1025.33 43.2475 Q1027.31 44.7058 1033.31 46.0426 L1035.86 46.6097 Q1043.8 48.3111 1047.12 51.4303 Q1050.49 54.509 1050.49 60.0587 Q1050.49 66.3781 1045.46 70.0644 Q1040.48 73.7508 1031.73 73.7508 Q1028.08 73.7508 1024.11 73.0216 Q1020.18 72.3329 1015.81 70.9151 L1015.81 63.2184 Q1019.94 65.3654 1023.95 66.4591 Q1027.96 67.5124 1031.89 67.5124 Q1037.16 67.5124 1039.99 65.73 Q1042.83 63.9071 1042.83 60.6258 Q1042.83 57.5877 1040.76 55.9673 Q1038.74 54.3469 1031.81 52.8481 L1029.22 52.2405 Q1022.29 50.7821 1019.21 47.7845 Q1016.13 44.7463 1016.13 39.4801 Q1016.13 33.0797 1020.67 29.5959 Q1025.21 26.1121 1033.55 26.1121 Q1037.68 26.1121 1041.33 26.7198 Q1044.98 27.3274 1048.05 28.5427 Z" clip-path="url(#clip950)"></path><path fill-opacity="1" fill-rule="nonzero" fill="#000000" d="M1062.35 27.2059 L1069.81 27.2059 L1069.81 72.576 L1062.35 72.576 L1062.35 27.2059 M1062.35 9.54393 L1069.81 9.54393 L1069.81 18.9825 L1062.35 18.9825 L1062.35 9.54393 Z" clip-path="url(#clip950)"></path><path fill-opacity="1" fill-rule="nonzero" fill="#000000" d="M1118.05 28.9478 L1118.05 35.9153 Q1114.89 34.1734 1111.69 33.3227 Q1108.53 32.4315 1105.29 32.4315 Q1098.04 32.4315 1094.03 37.0496 Q1090.02 41.6271 1090.02 49.9314 Q1090.02 58.2358 1094.03 62.8538 Q1098.04 67.4314 1105.29 67.4314 Q1108.53 67.4314 1111.69 66.5807 Q1114.89 65.6895 1118.05 63.9476 L1118.05 70.8341 Q1114.94 72.2924 1111.57 73.0216 Q1108.25 73.7508 1104.48 73.7508 Q1094.24 73.7508 1088.2 67.3098 Q1082.16 60.8689 1082.16 49.9314 Q1082.16 38.832 1088.24 32.472 Q1094.36 26.1121 1104.97 26.1121 Q1108.41 26.1121 1111.69 26.8413 Q1114.98 27.5299 1118.05 28.9478 Z" clip-path="url(#clip950)"></path><path fill-opacity="1" fill-rule="nonzero" fill="#000000" d="M1192.71 35.9153 Q1195.51 30.8922 1199.4 28.5022 Q1203.29 26.1121 1208.55 26.1121 Q1215.64 26.1121 1219.49 31.0947 Q1223.34 36.0368 1223.34 45.1919 L1223.34 72.576 L1215.84 72.576 L1215.84 45.4349 Q1215.84 38.913 1213.53 35.7533 Q1211.23 32.5936 1206.49 32.5936 Q1200.69 32.5936 1197.33 36.4419 Q1193.97 40.2903 1193.97 46.9338 L1193.97 72.576 L1186.47 72.576 L1186.47 45.4349 Q1186.47 38.8725 1184.17 35.7533 Q1181.86 32.5936 1177.04 32.5936 Q1171.32 32.5936 1167.96 36.4824 Q1164.6 40.3308 1164.6 46.9338 L1164.6 72.576 L1157.11 72.576 L1157.11 27.2059 L1164.6 27.2059 L1164.6 34.2544 Q1167.15 30.082 1170.72 28.0971 Q1174.28 26.1121 1179.18 26.1121 Q1184.12 26.1121 1187.57 28.6237 Q1191.05 31.1352 1192.71 35.9153 Z" clip-path="url(#clip950)"></path><path fill-opacity="1" fill-rule="nonzero" fill="#000000" d="M1255.79 32.4315 Q1249.79 32.4315 1246.31 37.1306 Q1242.82 41.7891 1242.82 49.9314 Q1242.82 58.0738 1246.27 62.7728 Q1249.75 67.4314 1255.79 67.4314 Q1261.74 67.4314 1265.22 62.7323 Q1268.71 58.0333 1268.71 49.9314 Q1268.71 41.8701 1265.22 37.1711 Q1261.74 32.4315 1255.79 32.4315 M1255.79 26.1121 Q1265.51 26.1121 1271.06 32.4315 Q1276.61 38.7509 1276.61 49.9314 Q1276.61 61.0714 1271.06 67.4314 Q1265.51 73.7508 1255.79 73.7508 Q1246.02 73.7508 1240.47 67.4314 Q1234.96 61.0714 1234.96 49.9314 Q1234.96 38.7509 1240.47 32.4315 Q1246.02 26.1121 1255.79 26.1121 Z" clip-path="url(#clip950)"></path><path fill-opacity="1" fill-rule="nonzero" fill="#000000" d="M1296.33 14.324 L1296.33 27.2059 L1311.69 27.2059 L1311.69 32.9987 L1296.33 32.9987 L1296.33 57.6282 Q1296.33 63.1779 1297.83 64.7578 Q1299.37 66.3376 1304.03 66.3376 L1311.69 66.3376 L1311.69 72.576 L1304.03 72.576 Q1295.4 72.576 1292.12 69.3758 Q1288.84 66.1351 1288.84 57.6282 L1288.84 32.9987 L1283.37 32.9987 L1283.37 27.2059 L1288.84 27.2059 L1288.84 14.324 L1296.33 14.324 Z" clip-path="url(#clip950)"></path><path fill-opacity="1" fill-rule="nonzero" fill="#000000" d="M1321.49 27.2059 L1328.94 27.2059 L1328.94 72.576 L1321.49 72.576 L1321.49 27.2059 M1321.49 9.54393 L1328.94 9.54393 L1328.94 18.9825 L1321.49 18.9825 L1321.49 9.54393 Z" clip-path="url(#clip950)"></path><path fill-opacity="1" fill-rule="nonzero" fill="#000000" d="M1362.12 32.4315 Q1356.13 32.4315 1352.64 37.1306 Q1349.16 41.7891 1349.16 49.9314 Q1349.16 58.0738 1352.6 62.7728 Q1356.09 67.4314 1362.12 67.4314 Q1368.08 67.4314 1371.56 62.7323 Q1375.04 58.0333 1375.04 49.9314 Q1375.04 41.8701 1371.56 37.1711 Q1368.08 32.4315 1362.12 32.4315 M1362.12 26.1121 Q1371.84 26.1121 1377.39 32.4315 Q1382.94 38.7509 1382.94 49.9314 Q1382.94 61.0714 1377.39 67.4314 Q1371.84 73.7508 1362.12 73.7508 Q1352.36 73.7508 1346.81 67.4314 Q1341.3 61.0714 1341.3 49.9314 Q1341.3 38.7509 1346.81 32.4315 Q1352.36 26.1121 1362.12 26.1121 Z" clip-path="url(#clip950)"></path><path fill-opacity="1" fill-rule="nonzero" fill="#000000" d="M1433.01 45.1919 L1433.01 72.576 L1425.56 72.576 L1425.56 45.4349 Q1425.56 38.994 1423.05 35.7938 Q1420.54 32.5936 1415.51 32.5936 Q1409.48 32.5936 1405.99 36.4419 Q1402.51 40.2903 1402.51 46.9338 L1402.51 72.576 L1395.01 72.576 L1395.01 27.2059 L1402.51 27.2059 L1402.51 34.2544 Q1405.18 30.163 1408.79 28.1376 Q1412.43 26.1121 1417.17 26.1121 Q1424.99 26.1121 1429 30.9732 Q1433.01 35.7938 1433.01 45.1919 Z" clip-path="url(#clip950)"></path><path fill-opacity="1" fill-rule="nonzero" fill="#000000" d="M1474.25 27.2059 L1481.7 27.2059 L1481.7 72.576 L1474.25 72.576 L1474.25 27.2059 M1474.25 9.54393 L1481.7 9.54393 L1481.7 18.9825 L1474.25 18.9825 L1474.25 9.54393 Z" clip-path="url(#clip950)"></path><path fill-opacity="1" fill-rule="nonzero" fill="#000000" d="M1535.01 45.1919 L1535.01 72.576 L1527.56 72.576 L1527.56 45.4349 Q1527.56 38.994 1525.05 35.7938 Q1522.54 32.5936 1517.51 32.5936 Q1511.48 32.5936 1507.99 36.4419 Q1504.51 40.2903 1504.51 46.9338 L1504.51 72.576 L1497.02 72.576 L1497.02 27.2059 L1504.51 27.2059 L1504.51 34.2544 Q1507.18 30.163 1510.79 28.1376 Q1514.44 26.1121 1519.18 26.1121 Q1526.99 26.1121 1531 30.9732 Q1535.01 35.7938 1535.01 45.1919 Z" clip-path="url(#clip950)"></path><path fill-opacity="1" fill-rule="nonzero" fill="#000000" d="M1573.01 27.2059 L1608.42 27.2059 L1608.42 34.0114 L1580.38 66.6212 L1608.42 66.6212 L1608.42 72.576 L1572 72.576 L1572 65.7705 L1600.03 33.1607 L1573.01 33.1607 L1573.01 27.2059 Z" clip-path="url(#clip950)"></path><path fill-opacity="1" fill-rule="nonzero" fill="#000000" d="M1666.79 49.7694 Q1657.76 49.7694 1654.27 51.8354 Q1650.79 53.9013 1650.79 58.8839 Q1650.79 62.8538 1653.38 65.2034 Q1656.01 67.5124 1660.51 67.5124 Q1666.71 67.5124 1670.44 63.1374 Q1674.2 58.7219 1674.2 51.4303 L1674.2 49.7694 L1666.79 49.7694 M1681.66 46.6907 L1681.66 72.576 L1674.2 72.576 L1674.2 65.6895 Q1671.65 69.8214 1667.84 71.8063 Q1664.04 73.7508 1658.53 73.7508 Q1651.56 73.7508 1647.43 69.8619 Q1643.34 65.9325 1643.34 59.3701 Q1643.34 51.7138 1648.44 47.825 Q1653.58 43.9361 1663.75 43.9361 L1674.2 43.9361 L1674.2 43.2069 Q1674.2 38.0623 1670.8 35.2672 Q1667.44 32.4315 1661.32 32.4315 Q1657.43 32.4315 1653.75 33.3632 Q1650.06 34.295 1646.66 36.1584 L1646.66 29.2718 Q1650.75 27.692 1654.6 26.9223 Q1658.45 26.1121 1662.09 26.1121 Q1671.93 26.1121 1676.8 31.2163 Q1681.66 36.3204 1681.66 46.6907 Z" clip-path="url(#clip950)"></path><path fill-opacity="1" fill-rule="nonzero" fill="#000000" d="M1734.72 27.2059 L1718.32 49.2833 L1735.57 72.576 L1726.78 72.576 L1713.58 54.752 L1700.37 72.576 L1691.58 72.576 L1709.2 48.8377 L1693.08 27.2059 L1701.87 27.2059 L1713.9 43.369 L1725.93 27.2059 L1734.72 27.2059 Z" clip-path="url(#clip950)"></path><path fill-opacity="1" fill-rule="nonzero" fill="#000000" d="M1746.11 27.2059 L1753.56 27.2059 L1753.56 72.576 L1746.11 72.576 L1746.11 27.2059 M1746.11 9.54393 L1753.56 9.54393 L1753.56 18.9825 L1746.11 18.9825 L1746.11 9.54393 Z" clip-path="url(#clip950)"></path><path fill-opacity="1" fill-rule="nonzero" fill="#000000" d="M1798.08 28.5427 L1798.08 35.5912 Q1794.92 33.9709 1791.52 33.1607 Q1788.11 32.3505 1784.47 32.3505 Q1778.92 32.3505 1776.12 34.0519 Q1773.37 35.7533 1773.37 39.156 Q1773.37 41.7486 1775.35 43.2475 Q1777.34 44.7058 1783.33 46.0426 L1785.89 46.6097 Q1793.83 48.3111 1797.15 51.4303 Q1800.51 54.509 1800.51 60.0587 Q1800.51 66.3781 1795.49 70.0644 Q1790.5 73.7508 1781.75 73.7508 Q1778.11 73.7508 1774.14 73.0216 Q1770.21 72.3329 1765.83 70.9151 L1765.83 63.2184 Q1769.97 65.3654 1773.98 66.4591 Q1777.99 67.5124 1781.92 67.5124 Q1787.18 67.5124 1790.02 65.73 Q1792.85 63.9071 1792.85 60.6258 Q1792.85 57.5877 1790.79 55.9673 Q1788.76 54.3469 1781.84 52.8481 L1779.24 52.2405 Q1772.32 50.7821 1769.24 47.7845 Q1766.16 44.7463 1766.16 39.4801 Q1766.16 33.0797 1770.7 29.5959 Q1775.23 26.1121 1783.58 26.1121 Q1787.71 26.1121 1791.36 26.7198 Q1795 27.3274 1798.08 28.5427 Z" clip-path="url(#clip950)"></path><polyline points="193.936,638.481 196.097,636.214 198.258,633.95 200.419,631.688 202.58,629.429 204.741,627.173 206.902,624.92 209.063,622.67 211.224,620.422 213.385,618.177 215.546,615.935 217.707,613.696 219.868,611.46 222.029,609.227 224.19,606.997 226.351,604.77 228.512,602.545 230.673,600.324 232.834,598.106 234.995,595.89 237.156,593.678 239.317,591.469 241.478,589.262 243.639,587.059 245.8,584.859 247.961,582.662 250.122,580.468 252.282,578.278 254.443,576.09 256.604,573.906 258.765,571.725 260.926,569.547 263.087,567.372 265.248,565.201 267.409,563.032 269.57,560.867 271.731,558.706 273.892,556.547 276.053,554.393 278.214,552.241 280.375,550.093 282.536,547.948 284.697,545.806 286.858,543.668 289.019,541.534 291.18,539.403 293.341,537.275 295.502,535.151 297.663,533.03 299.824,530.913 301.985,528.8 304.146,526.69 306.307,524.584 308.468,522.481 310.629,520.382 312.79,518.287 314.951,516.195 317.112,514.107 319.273,512.022 321.434,509.942 323.595,507.865 325.756,505.792 327.917,503.723 330.078,501.657 332.239,499.596 334.4,497.538 336.561,495.484 338.722,493.434 340.883,491.388 343.044,489.346 345.205,487.308 347.366,485.273 349.527,483.243 351.688,481.217 353.849,479.195 356.01,477.177 358.171,475.163 360.332,473.153 362.493,471.147 364.653,469.145 366.814,467.148 368.975,465.154 371.136,463.165 373.297,461.18 375.458,459.2 377.619,457.224 379.78,455.251 381.941,453.284 384.102,451.32 386.263,449.361 388.424,447.407 390.585,445.456 392.746,443.511 394.907,441.569 397.068,439.632 399.229,437.7 401.39,435.772 403.551,433.849 405.712,431.93 407.873,430.016 410.034,428.106 412.195,426.201 414.356,424.301 416.517,422.405 418.678,420.514 420.839,418.628 423,416.747 425.161,414.87 427.322,412.998 429.483,411.131 431.644,409.269 433.805,407.412 435.966,405.559 438.127,403.712 440.288,401.869 442.449,400.032 444.61,398.199 446.771,396.371 448.932,394.549 451.093,392.731 453.254,390.919 455.415,389.112 457.576,387.309 459.737,385.512 461.898,383.721 464.059,381.934 466.22,380.153 468.381,378.376 470.542,376.606 472.703,374.84 474.864,373.08 477.024,371.325 479.185,369.575 481.346,367.831 483.507,366.093 485.668,364.36 487.829,362.632 489.99,360.91 492.151,359.193 494.312,357.482 496.473,355.776 498.634,354.077 500.795,352.382 502.956,350.694 505.117,349.011 507.278,347.334 509.439,345.662 511.6,343.996 513.761,342.336 515.922,340.682 518.083,339.034 520.244,337.392 522.405,335.755 524.566,334.124 526.727,332.5 528.888,330.881 531.049,329.268 533.21,327.662 535.371,326.061 537.532,324.466 539.693,322.878 541.854,321.296 544.015,319.719 546.176,318.149 548.337,316.586 550.498,315.028 552.659,313.477 554.82,311.932 556.981,310.393 559.142,308.86 561.303,307.334 563.464,305.815 565.625,304.301 567.786,302.795 569.947,301.294 572.108,299.8 574.269,298.313 576.43,296.832 578.591,295.358 580.752,293.89 582.913,292.429 585.074,290.975 587.235,289.527 589.396,288.086 591.556,286.652 593.717,285.225 595.878,283.804 598.039,282.39 600.2,280.983 602.361,279.583 604.522,278.19 606.683,276.804 608.844,275.424 611.005,274.052 613.166,272.687 615.327,271.328 617.488,269.977 619.649,268.633 621.81,267.296 623.971,265.966 626.132,264.643 628.293,263.327 630.454,262.019 632.615,260.718 634.776,259.424 636.937,258.137 639.098,256.858 641.259,255.586 643.42,254.322 645.581,253.065 647.742,251.815 649.903,250.572 652.064,249.338 654.225,248.11 656.386,246.89 658.547,245.678 660.708,244.473 662.869,243.276 665.03,242.087 667.191,240.905 669.352,239.731 671.513,238.564 673.674,237.405 675.835,236.254 677.996,235.111 680.157,233.975 682.318,232.848 684.479,231.728 686.64,230.616 688.801,229.512 690.962,228.416 693.123,227.327 695.284,226.247 697.445,225.175 699.606,224.11 701.767,223.054 703.927,222.006 706.088,220.966 708.249,219.934 710.41,218.91 712.571,217.894 714.732,216.887 716.893,215.887 719.054,214.896 721.215,213.913 723.376,212.938 725.537,211.972 727.698,211.014 729.859,210.064 732.02,209.123 734.181,208.19 736.342,207.266 738.503,206.349 740.664,205.442 742.825,204.543 744.986,203.652 747.147,202.77 749.308,201.896 751.469,201.031 753.63,200.174 755.791,199.326 757.952,198.487 760.113,197.656 762.274,196.834 764.435,196.02 766.596,195.215 768.757,194.419 770.918,193.632 773.079,192.854 775.24,192.084 777.401,191.323 779.562,190.571 781.723,189.827 783.884,189.093 786.045,188.367 788.206,187.65 790.367,186.943 792.528,186.244 794.689,185.554 796.85,184.873 799.011,184.201 801.172,183.538 803.333,182.884 805.494,182.239 807.655,181.603 809.816,180.976 811.977,180.358 814.138,179.75 816.298,179.15 818.459,178.56 820.62,177.978 822.781,177.406 824.942,176.843 827.103,176.289 829.264,175.745 831.425,175.209 833.586,174.683 835.747,174.166 837.908,173.659 840.069,173.16 842.23,172.671 844.391,172.191 846.552,171.721 848.713,171.259 850.874,170.808 853.035,170.365 855.196,169.932 857.357,169.508 859.518,169.094 861.679,168.688 863.84,168.293 866.001,167.906 868.162,167.53 870.323,167.162 872.484,166.804 874.645,166.456 876.806,166.116 878.967,165.787 881.128,165.467 883.289,165.156 885.45,164.855 887.611,164.563 889.772,164.281 891.933,164.008 894.094,163.745 896.255,163.491 898.416,163.247 900.577,163.012 902.738,162.787 904.899,162.572 907.06,162.366 909.221,162.169 911.382,161.983 913.543,161.805 915.704,161.638 917.865,161.48 920.026,161.331 922.187,161.192 924.348,161.063 926.509,160.943 928.669,160.833 930.83,160.732 932.991,160.642 935.152,160.56 937.313,160.489 939.474,160.427 941.635,160.374 943.796,160.331 945.957,160.298 948.118,160.275 950.279,160.261 952.44,160.256 954.601,160.262 956.762,160.277 958.923,160.301 961.084,160.335 963.245,160.379 965.406,160.433 967.567,160.496 969.728,160.569 971.889,160.651 974.05,160.743 976.211,160.844 978.372,160.955 980.533,161.076 982.694,161.207 984.855,161.347 987.016,161.496 989.177,161.655 991.338,161.824 993.499,162.002 995.66,162.19 997.821,162.387 999.982,162.594 1002.14,162.811 1004.3,163.037 1006.46,163.273 1008.63,163.518 1010.79,163.772 1012.95,164.037 1015.11,164.31 1017.27,164.594 1019.43,164.886 1021.59,165.188 1023.75,165.5 1025.91,165.821 1028.07,166.152 1030.24,166.492 1032.4,166.842 1034.56,167.201 1036.72,167.569 1038.88,167.947 1041.04,168.334 1043.2,168.731 1045.36,169.137 1047.52,169.552 1049.68,169.977 1051.85,170.411 1054.01,170.854 1056.17,171.307 1058.33,171.769 1060.49,172.241 1062.65,172.722 1064.81,173.212 1066.97,173.711 1069.13,174.22 1071.29,174.737 1073.46,175.264 1075.62,175.801 1077.78,176.346 1079.94,176.901 1082.1,177.465 1084.26,178.038 1086.42,178.62 1088.58,179.211 1090.74,179.812 1092.9,180.421 1095.07,181.04 1097.23,181.668 1099.39,182.305 1101.55,182.951 1103.71,183.605 1105.87,184.269 1108.03,184.942 1110.19,185.624 1112.35,186.315 1114.51,187.015 1116.67,187.723 1118.84,188.441 1121,189.168 1123.16,189.903 1125.32,190.647 1127.48,191.4 1129.64,192.162 1131.8,192.933 1133.96,193.713 1136.12,194.501 1138.28,195.298 1140.45,196.104 1142.61,196.918 1144.77,197.741 1146.93,198.573 1149.09,199.413 1151.25,200.262 1153.41,201.12 1155.57,201.986 1157.73,202.861 1159.89,203.744 1162.06,204.636 1164.22,205.537 1166.38,206.445 1168.54,207.363 1170.7,208.288 1172.86,209.222 1175.02,210.165 1177.18,211.116 1179.34,212.075 1181.5,213.042 1183.67,214.018 1185.83,215.002 1187.99,215.994 1190.15,216.994 1192.31,218.003 1194.47,219.02 1196.63,220.045 1198.79,221.077 1200.95,222.119 1203.11,223.168 1205.28,224.225 1207.44,225.29 1209.6,226.363 1211.76,227.444 1213.92,228.534 1216.08,229.631 1218.24,230.736 1220.4,231.849 1222.56,232.969 1224.72,234.098 1226.88,235.234 1229.05,236.379 1231.21,237.531 1233.37,238.69 1235.53,239.858 1237.69,241.033 1239.85,242.216 1242.01,243.406 1244.17,244.604 1246.33,245.809 1248.49,247.023 1250.66,248.243 1252.82,249.471 1254.98,250.707 1257.14,251.95 1259.3,253.201 1261.46,254.459 1263.62,255.724 1265.78,256.997 1267.94,258.277 1270.1,259.564 1272.27,260.858 1274.43,262.16 1276.59,263.469 1278.75,264.785 1280.91,266.109 1283.07,267.439 1285.23,268.777 1287.39,270.122 1289.55,271.474 1291.71,272.833 1293.88,274.198 1296.04,275.571 1298.2,276.951 1300.36,278.338 1302.52,279.732 1304.68,281.132 1306.84,282.54 1309,283.954 1311.16,285.375 1313.32,286.803 1315.49,288.238 1317.65,289.679 1319.81,291.127 1321.97,292.582 1324.13,294.044 1326.29,295.512 1328.45,296.986 1330.61,298.468 1332.77,299.956 1334.93,301.45 1337.09,302.951 1339.26,304.458 1341.42,305.972 1343.58,307.492 1345.74,309.019 1347.9,310.552 1350.06,312.091 1352.22,313.637 1354.38,315.189 1356.54,316.747 1358.7,318.311 1360.87,319.882 1363.03,321.459 1365.19,323.042 1367.35,324.631 1369.51,326.226 1371.67,327.828 1373.83,329.435 1375.99,331.048 1378.15,332.668 1380.31,334.293 1382.48,335.925 1384.64,337.562 1386.8,339.205 1388.96,340.854 1391.12,342.509 1393.28,344.17 1395.44,345.837 1397.6,347.509 1399.76,349.187 1401.92,350.871 1404.09,352.56 1406.25,354.256 1408.41,355.956 1410.57,357.663 1412.73,359.375 1414.89,361.092 1417.05,362.815 1419.21,364.544 1421.37,366.278 1423.53,368.018 1425.7,369.763 1427.86,371.513 1430.02,373.269 1432.18,375.03 1434.34,376.796 1436.5,378.568 1438.66,380.345 1440.82,382.127 1442.98,383.915 1445.14,385.707 1447.3,387.505 1449.47,389.308 1451.63,391.116 1453.79,392.929 1455.95,394.747 1458.11,396.571 1460.27,398.399 1462.43,400.232 1464.59,402.07 1466.75,403.913 1468.91,405.761 1471.08,407.614 1473.24,409.472 1475.4,411.335 1477.56,413.202 1479.72,415.075 1481.88,416.952 1484.04,418.834 1486.2,420.72 1488.36,422.612 1490.52,424.508 1492.69,426.408 1494.85,428.314 1497.01,430.224 1499.17,432.138 1501.33,434.058 1503.49,435.981 1505.65,437.91 1507.81,439.842 1509.97,441.78 1512.13,443.722 1514.3,445.668 1516.46,447.618 1518.62,449.573 1520.78,451.533 1522.94,453.497 1525.1,455.465 1527.26,457.437 1529.42,459.414 1531.58,461.395 1533.74,463.38 1535.91,465.369 1538.07,467.363 1540.23,469.361 1542.39,471.363 1544.55,473.369 1546.71,475.379 1548.87,477.394 1551.03,479.412 1553.19,481.435 1555.35,483.461 1557.51,485.492 1559.68,487.526 1561.84,489.565 1564,491.608 1566.16,493.654 1568.32,495.704 1570.48,497.759 1572.64,499.817 1574.8,501.879 1576.96,503.944 1579.12,506.014 1581.29,508.088 1583.45,510.165 1585.61,512.246 1587.77,514.33 1589.93,516.419 1592.09,518.511 1594.25,520.607 1596.41,522.706 1598.57,524.809 1600.73,526.916 1602.9,529.026 1605.06,531.14 1607.22,533.257 1609.38,535.378 1611.54,537.503 1613.7,539.631 1615.86,541.762 1618.02,543.897 1620.18,546.036 1622.34,548.177 1624.51,550.323 1626.67,552.471 1628.83,554.623 1630.99,556.779 1633.15,558.937 1635.31,561.099 1637.47,563.265 1639.63,565.433 1641.79,567.605 1643.95,569.78 1646.12,571.958 1648.28,574.14 1650.44,576.325 1652.6,578.513 1654.76,580.704 1656.92,582.898 1659.08,585.095 1661.24,587.296 1663.4,589.499 1665.56,591.706 1667.72,593.916 1669.89,596.128 1672.05,598.344 1674.21,600.563 1676.37,602.785 1678.53,605.01 1680.69,607.237 1682.85,609.468 1685.01,611.701 1687.17,613.938 1689.33,616.177 1691.5,618.42 1693.66,620.665 1695.82,622.913 1697.98,625.163 1700.14,627.417 1702.3,629.673 1704.46,631.933 1706.62,634.195 1708.78,636.459 1710.94,638.727 1713.11,640.997 1715.27,643.27 1717.43,645.545 1719.59,647.824 1721.75,650.104 1723.91,652.388 1726.07,654.674 1728.23,656.963 1730.39,659.254 1732.55,661.548 1734.72,663.845 1736.88,666.144 1739.04,668.446 1741.2,670.75 1743.36,673.057 1745.52,675.366 1747.68,677.677 1749.84,679.992 1752,682.308 1754.16,684.627 1756.33,686.949 1758.49,689.273 1760.65,691.599 1762.81,693.928 1764.97,696.259 1767.13,698.592 1769.29,700.928 1771.45,703.266 1773.61,705.606 1775.77,707.949 1777.93,710.294 1780.1,712.642 1782.26,714.991 1784.42,717.343 1786.58,719.697 1788.74,722.053 1790.9,724.412 1793.06,726.773 1795.22,729.136 1797.38,731.501 1799.54,733.868 1801.71,736.238 1803.87,738.609 1806.03,740.983 1808.19,743.359 1810.35,745.737 1812.51,748.117 1814.67,750.5 1816.83,752.884 1818.99,755.27 1821.15,757.659 1823.32,760.049 1825.48,762.442 1827.64,764.836 1829.8,767.233 1831.96,769.632 1834.12,772.032 1836.28,774.435 1838.44,776.839 1840.6,779.246 1842.76,781.654 1844.93,784.065 1847.09,786.477 1849.25,788.891 1851.41,791.307 1853.57,793.725 1855.73,796.145 1857.89,798.567 1860.05,800.991 1862.21,803.416 1864.37,805.843 1866.54,808.273 1868.7,810.704 1870.86,813.136 1873.02,815.571 1875.18,818.007 1877.34,820.446 1879.5,822.886 1881.66,825.327 1883.82,827.771 1885.98,830.216 1888.15,832.663 1890.31,835.111 1892.47,837.562 1894.63,840.014 1896.79,842.468 1898.95,844.923 1901.11,847.38 1903.27,849.839 1905.43,852.299 1907.59,854.761 1909.75,857.225 1911.92,859.69 1914.08,862.157 1916.24,864.626 1918.4,867.096 1920.56,869.568 1922.72,872.041 1924.88,874.516 1927.04,876.992 1929.2,879.47 1931.36,881.95 1933.53,884.431 1935.69,886.913 1937.85,889.398 1940.01,891.883 1942.17,894.37 1944.33,896.859 1946.49,899.349 1948.65,901.841 1950.81,904.334 1952.97,906.828 1955.14,909.324 1957.3,911.821 1959.46,914.32 1961.62,916.82 1963.78,919.322 1965.94,921.825 1968.1,924.329 1970.26,926.835 1972.42,929.342 1974.58,931.851 1976.75,934.361 1978.91,936.872 1981.07,939.385 1983.23,941.899 1985.39,944.414 1987.55,946.931 1989.71,949.449 1991.87,951.968 1994.03,954.488 1996.19,957.01 1998.36,959.533 2000.52,962.058 2002.68,964.584 2004.84,967.11 2007,969.639 2009.16,972.168 2011.32,974.699 2013.48,977.231 2015.64,979.764 2017.8,982.299 2019.96,984.834 2022.13,987.371 2024.29,989.909 2026.45,992.448 2028.61,994.989 2030.77,997.53 2032.93,1000.07 2035.09,1002.62 2037.25,1005.16 2039.41,1007.71 2041.57,1010.26 2043.74,1012.8 2045.9,1015.35 2048.06,1017.9 2050.22,1020.46 2052.38,1023.01 2054.54,1025.56 2056.7,1028.12 2058.86,1030.68 2061.02,1033.23 2063.18,1035.79 2065.35,1038.35 2067.51,1040.91 2069.67,1043.47 2071.83,1046.04 2073.99,1048.6 2076.15,1051.17 2078.31,1053.73 2080.47,1056.3 2082.63,1058.87 2084.79,1061.44 2086.96,1064.01 2089.12,1066.58 2091.28,1069.15 2093.44,1071.72 2095.6,1074.3 2097.76,1076.87 2099.92,1079.45 2102.08,1082.03 2104.24,1084.6 2106.4,1087.18 2108.57,1089.76 2110.73,1092.34 2112.89,1094.93 2115.05,1097.51 2117.21,1100.09 2119.37,1102.68 2121.53,1105.26 2123.69,1107.85 2125.85,1110.44 2128.01,1113.03 2130.17,1115.62 2132.34,1118.21 2134.5,1120.8 2136.66,1123.39 2138.82,1125.98 2140.98,1128.58 2143.14,1131.17 2145.3,1133.77 2147.46,1136.36 2149.62,1138.96 2151.78,1141.56 2153.95,1144.16 2156.11,1146.76 2158.27,1149.36 2160.43,1151.96 2162.59,1154.57 2164.75,1157.17 2166.91,1159.77 2169.07,1162.38 2171.23,1164.98 2173.39,1167.59 2175.56,1170.2 2177.72,1172.81 2179.88,1175.42 2182.04,1178.03 2184.2,1180.64 2186.36,1183.25 2188.52,1185.86 2190.68,1188.47 2192.84,1191.09 2195,1193.7 2197.17,1196.32 2199.33,1198.93 2201.49,1201.55 2203.65,1204.17 2205.81,1206.79 2207.97,1209.41 2210.13,1212.03 2212.29,1214.65 2214.45,1217.27 2216.61,1219.89 2218.78,1222.51 2220.94,1225.14 2223.1,1227.76 2225.26,1230.39 2227.42,1233.01 2229.58,1235.64 2231.74,1238.27 2233.9,1240.89 2236.06,1243.52 2238.22,1246.15 2240.38,1248.78 2242.55,1251.41 2244.71,1254.04 2246.87,1256.68 2249.03,1259.31 2251.19,1261.94 2253.35,1264.58 2255.51,1267.21 2257.67,1269.85 2259.83,1272.48 2261.99,1275.12 2264.16,1277.76 2266.32,1280.39 2268.48,1283.03 2270.64,1285.67 2272.8,1288.31 2274.96,1290.95 2277.12,1293.59 2279.28,1296.23 2281.44,1298.88 2283.6,1301.52 2285.77,1304.16 2287.93,1306.81 2290.09,1309.45 2292.25,1312.1 2294.41,1314.74 2296.57,1317.39 2298.73,1320.04 2300.89,1322.68 2303.05,1325.33 2305.21,1327.98 2307.38,1330.63 2309.54,1333.28 2311.7,1335.93 2313.86,1338.58 2316.02,1341.23 2318.18,1343.89 2320.34,1346.54 2322.5,1349.19 2324.66,1351.85 2326.82,1354.5 2328.99,1357.16 2331.15,1359.81 2333.31,1362.47 2335.47,1365.12 2337.63,1367.78 2339.79,1370.44 2341.95,1373.1 2344.11,1375.76 2346.27,1378.41 2348.43,1381.07 2350.59,1383.73 2352.76,1386.4" style="stroke:#009af9; stroke-linecap:round; stroke-linejoin:round; stroke-width:4; stroke-opacity:1; fill:none" clip-path="url(#clip952)"></polyline><polyline points="193.936,185.249 196.097,185.794 198.258,186.343 200.419,186.895 202.58,187.45 204.741,188.008 206.902,188.57 209.063,189.134 211.224,189.701 213.385,190.272 215.546,190.846 217.707,191.423 219.868,192.003 222.029,192.586 224.19,193.172 226.351,193.762 228.512,194.355 230.673,194.951 232.834,195.551 234.995,196.154 237.156,196.76 239.317,197.369 241.478,197.982 243.639,198.598 245.8,199.218 247.961,199.841 250.122,200.467 252.282,201.097 254.443,201.73 256.604,202.367 258.765,203.007 260.926,203.65 263.087,204.297 265.248,204.948 267.409,205.602 269.57,206.26 271.731,206.921 273.892,207.586 276.053,208.255 278.214,208.927 280.375,209.602 282.536,210.282 284.697,210.965 286.858,211.652 289.019,212.342 291.18,213.036 293.341,213.734 295.502,214.436 297.663,215.141 299.824,215.85 301.985,216.563 304.146,217.28 306.307,218.001 308.468,218.725 310.629,219.454 312.79,220.186 314.951,220.922 317.112,221.662 319.273,222.406 321.434,223.154 323.595,223.906 325.756,224.661 327.917,225.421 330.078,226.185 332.239,226.953 334.4,227.725 336.561,228.501 338.722,229.281 340.883,230.065 343.044,230.853 345.205,231.646 347.366,232.442 349.527,233.243 351.688,234.048 353.849,234.857 356.01,235.67 358.171,236.487 360.332,237.309 362.493,238.135 364.653,238.965 366.814,239.8 368.975,240.638 371.136,241.481 373.297,242.329 375.458,243.181 377.619,244.037 379.78,244.897 381.941,245.762 384.102,246.632 386.263,247.505 388.424,248.384 390.585,249.266 392.746,250.153 394.907,251.045 397.068,251.941 399.229,252.842 401.39,253.747 403.551,254.656 405.712,255.571 407.873,256.489 410.034,257.413 412.195,258.341 414.356,259.274 416.517,260.211 418.678,261.153 420.839,262.099 423,263.051 425.161,264.007 427.322,264.968 429.483,265.933 431.644,266.903 433.805,267.878 435.966,268.858 438.127,269.842 440.288,270.832 442.449,271.826 444.61,272.825 446.771,273.828 448.932,274.837 451.093,275.85 453.254,276.869 455.415,277.892 457.576,278.92 459.737,279.953 461.898,280.991 464.059,282.034 466.22,283.081 468.381,284.134 470.542,285.192 472.703,286.254 474.864,287.322 477.024,288.395 479.185,289.472 481.346,290.555 483.507,291.643 485.668,292.735 487.829,293.833 489.99,294.936 492.151,296.044 494.312,297.157 496.473,298.275 498.634,299.398 500.795,300.526 502.956,301.66 505.117,302.798 507.278,303.942 509.439,305.091 511.6,306.244 513.761,307.403 515.922,308.568 518.083,309.737 520.244,310.912 522.405,312.091 524.566,313.276 526.727,314.466 528.888,315.662 531.049,316.862 533.21,318.068 535.371,319.279 537.532,320.495 539.693,321.717 541.854,322.944 544.015,324.176 546.176,325.413 548.337,326.655 550.498,327.903 552.659,329.156 554.82,330.414 556.981,331.678 559.142,332.947 561.303,334.221 563.464,335.5 565.625,336.785 567.786,338.075 569.947,339.37 572.108,340.67 574.269,341.976 576.43,343.287 578.591,344.603 580.752,345.925 582.913,347.252 585.074,348.584 587.235,349.922 589.396,351.264 591.556,352.613 593.717,353.966 595.878,355.325 598.039,356.689 600.2,358.058 602.361,359.432 604.522,360.812 606.683,362.197 608.844,363.588 611.005,364.983 613.166,366.384 615.327,367.79 617.488,369.202 619.649,370.618 621.81,372.04 623.971,373.467 626.132,374.899 628.293,376.337 630.454,377.78 632.615,379.228 634.776,380.681 636.937,382.139 639.098,383.603 641.259,385.071 643.42,386.545 645.581,388.024 647.742,389.508 649.903,390.998 652.064,392.492 654.225,393.992 656.386,395.496 658.547,397.006 660.708,398.521 662.869,400.04 665.03,401.565 667.191,403.095 669.352,404.63 671.513,406.17 673.674,407.714 675.835,409.264 677.996,410.819 680.157,412.379 682.318,413.943 684.479,415.513 686.64,417.087 688.801,418.666 690.962,420.25 693.123,421.839 695.284,423.433 697.445,425.032 699.606,426.635 701.767,428.243 703.927,429.856 706.088,431.473 708.249,433.095 710.41,434.722 712.571,436.354 714.732,437.99 716.893,439.63 719.054,441.276 721.215,442.926 723.376,444.58 725.537,446.239 727.698,447.902 729.859,449.57 732.02,451.242 734.181,452.919 736.342,454.6 738.503,456.285 740.664,457.975 742.825,459.669 744.986,461.367 747.147,463.07 749.308,464.777 751.469,466.488 753.63,468.203 755.791,469.922 757.952,471.645 760.113,473.373 762.274,475.104 764.435,476.839 766.596,478.579 768.757,480.322 770.918,482.069 773.079,483.82 775.24,485.575 777.401,487.334 779.562,489.096 781.723,490.862 783.884,492.632 786.045,494.405 788.206,496.182 790.367,497.963 792.528,499.747 794.689,501.535 796.85,503.326 799.011,505.12 801.172,506.918 803.333,508.719 805.494,510.524 807.655,512.331 809.816,514.142 811.977,515.957 814.138,517.774 816.298,519.594 818.459,521.418 820.62,523.244 822.781,525.074 824.942,526.906 827.103,528.742 829.264,530.58 831.425,532.421 833.586,534.265 835.747,536.111 837.908,537.96 840.069,539.812 842.23,541.667 844.391,543.524 846.552,545.383 848.713,547.245 850.874,549.11 853.035,550.976 855.196,552.846 857.357,554.717 859.518,556.591 861.679,558.467 863.84,560.345 866.001,562.225 868.162,564.107 870.323,565.991 872.484,567.877 874.645,569.765 876.806,571.655 878.967,573.547 881.128,575.441 883.289,577.336 885.45,579.233 887.611,581.131 889.772,583.031 891.933,584.933 894.094,586.836 896.255,588.741 898.416,590.647 900.577,592.554 902.738,594.462 904.899,596.372 907.06,598.283 909.221,600.195 911.382,602.108 913.543,604.022 915.704,605.937 917.865,607.853 920.026,609.77 922.187,611.687 924.348,613.606 926.509,615.525 928.669,617.444 930.83,619.364 932.991,621.285 935.152,623.206 937.313,625.128 939.474,627.05 941.635,628.972 943.796,630.895 945.957,632.817 948.118,634.74 950.279,636.663 952.44,638.586 954.601,640.508 956.762,642.431 958.923,644.354 961.084,646.276 963.245,648.199 965.406,650.121 967.567,652.043 969.728,653.964 971.889,655.885 974.05,657.806 976.211,659.726 978.372,661.645 980.533,663.564 982.694,665.482 984.855,667.4 987.016,669.316 989.177,671.232 991.338,673.147 993.499,675.061 995.66,676.974 997.821,678.886 999.982,680.796 1002.14,682.706 1004.3,684.614 1006.46,686.521 1008.63,688.427 1010.79,690.331 1012.95,692.234 1015.11,694.136 1017.27,696.036 1019.43,697.934 1021.59,699.831 1023.75,701.726 1025.91,703.619 1028.07,705.511 1030.24,707.4 1032.4,709.288 1034.56,711.174 1036.72,713.058 1038.88,714.94 1041.04,716.82 1043.2,718.698 1045.36,720.573 1047.52,722.447 1049.68,724.318 1051.85,726.186 1054.01,728.053 1056.17,729.917 1058.33,731.779 1060.49,733.638 1062.65,735.495 1064.81,737.349 1066.97,739.2 1069.13,741.049 1071.29,742.895 1073.46,744.739 1075.62,746.579 1077.78,748.417 1079.94,750.252 1082.1,752.084 1084.26,753.914 1086.42,755.74 1088.58,757.563 1090.74,759.383 1092.9,761.2 1095.07,763.014 1097.23,764.824 1099.39,766.632 1101.55,768.436 1103.71,770.236 1105.87,772.034 1108.03,773.828 1110.19,775.619 1112.35,777.406 1114.51,779.19 1116.67,780.97 1118.84,782.747 1121,784.52 1123.16,786.289 1125.32,788.055 1127.48,789.817 1129.64,791.575 1131.8,793.33 1133.96,795.08 1136.12,796.827 1138.28,798.57 1140.45,800.309 1142.61,802.044 1144.77,803.775 1146.93,805.502 1149.09,807.225 1151.25,808.944 1153.41,810.659 1155.57,812.37 1157.73,814.077 1159.89,815.779 1162.06,817.477 1164.22,819.171 1166.38,820.86 1168.54,822.546 1170.7,824.227 1172.86,825.903 1175.02,827.575 1177.18,829.243 1179.34,830.906 1181.5,832.565 1183.67,834.219 1185.83,835.868 1187.99,837.513 1190.15,839.154 1192.31,840.79 1194.47,842.421 1196.63,844.047 1198.79,845.669 1200.95,847.286 1203.11,848.898 1205.28,850.506 1207.44,852.108 1209.6,853.706 1211.76,855.299 1213.92,856.887 1216.08,858.471 1218.24,860.049 1220.4,861.623 1222.56,863.191 1224.72,864.755 1226.88,866.314 1229.05,867.868 1231.21,869.417 1233.37,870.961 1235.53,872.5 1237.69,874.034 1239.85,875.562 1242.01,877.086 1244.17,878.605 1246.33,880.119 1248.49,881.628 1250.66,883.131 1252.82,884.63 1254.98,886.124 1257.14,887.612 1259.3,889.095 1261.46,890.574 1263.62,892.047 1265.78,893.515 1267.94,894.977 1270.1,896.435 1272.27,897.887 1274.43,899.335 1276.59,900.777 1278.75,902.214 1280.91,903.645 1283.07,905.072 1285.23,906.493 1287.39,907.909 1289.55,909.32 1291.71,910.726 1293.88,912.126 1296.04,913.521 1298.2,914.911 1300.36,916.296 1302.52,917.675 1304.68,919.049 1306.84,920.418 1309,921.782 1311.16,923.14 1313.32,924.493 1315.49,925.841 1317.65,927.184 1319.81,928.521 1321.97,929.853 1324.13,931.18 1326.29,932.501 1328.45,933.817 1330.61,935.128 1332.77,936.434 1334.93,937.734 1337.09,939.029 1339.26,940.319 1341.42,941.603 1343.58,942.882 1345.74,944.156 1347.9,945.425 1350.06,946.688 1352.22,947.946 1354.38,949.199 1356.54,950.446 1358.7,951.689 1360.87,952.925 1363.03,954.157 1365.19,955.384 1367.35,956.605 1369.51,957.821 1371.67,959.031 1373.83,960.237 1375.99,961.437 1378.15,962.632 1380.31,963.822 1382.48,965.006 1384.64,966.186 1386.8,967.36 1388.96,968.529 1391.12,969.693 1393.28,970.851 1395.44,972.005 1397.6,973.153 1399.76,974.296 1401.92,975.434 1404.09,976.567 1406.25,977.694 1408.41,978.817 1410.57,979.934 1412.73,981.046 1414.89,982.154 1417.05,983.256 1419.21,984.353 1421.37,985.445 1423.53,986.532 1425.7,987.614 1427.86,988.691 1430.02,989.762 1432.18,990.829 1434.34,991.891 1436.5,992.948 1438.66,994 1440.82,995.047 1442.98,996.089 1445.14,997.126 1447.3,998.158 1449.47,999.186 1451.63,1000.21 1453.79,1001.23 1455.95,1002.24 1458.11,1003.25 1460.27,1004.25 1462.43,1005.25 1464.59,1006.24 1466.75,1007.23 1468.91,1008.21 1471.08,1009.19 1473.24,1010.17 1475.4,1011.14 1477.56,1012.1 1479.72,1013.06 1481.88,1014.02 1484.04,1014.97 1486.2,1015.91 1488.36,1016.85 1490.52,1017.79 1492.69,1018.72 1494.85,1019.65 1497.01,1020.57 1499.17,1021.49 1501.33,1022.4 1503.49,1023.31 1505.65,1024.22 1507.81,1025.12 1509.97,1026.01 1512.13,1026.9 1514.3,1027.79 1516.46,1028.67 1518.62,1029.55 1520.78,1030.42 1522.94,1031.29 1525.1,1032.16 1527.26,1033.02 1529.42,1033.87 1531.58,1034.72 1533.74,1035.57 1535.91,1036.41 1538.07,1037.25 1540.23,1038.08 1542.39,1038.91 1544.55,1039.74 1546.71,1040.56 1548.87,1041.38 1551.03,1042.19 1553.19,1043 1555.35,1043.8 1557.51,1044.6 1559.68,1045.4 1561.84,1046.19 1564,1046.98 1566.16,1047.76 1568.32,1048.54 1570.48,1049.32 1572.64,1050.09 1574.8,1050.86 1576.96,1051.62 1579.12,1052.38 1581.29,1053.13 1583.45,1053.89 1585.61,1054.63 1587.77,1055.38 1589.93,1056.12 1592.09,1056.85 1594.25,1057.58 1596.41,1058.31 1598.57,1059.04 1600.73,1059.76 1602.9,1060.47 1605.06,1061.19 1607.22,1061.9 1609.38,1062.6 1611.54,1063.3 1613.7,1064 1615.86,1064.69 1618.02,1065.38 1620.18,1066.07 1622.34,1066.75 1624.51,1067.43 1626.67,1068.11 1628.83,1068.78 1630.99,1069.45 1633.15,1070.11 1635.31,1070.77 1637.47,1071.43 1639.63,1072.08 1641.79,1072.74 1643.95,1073.38 1646.12,1074.03 1648.28,1074.67 1650.44,1075.3 1652.6,1075.93 1654.76,1076.56 1656.92,1077.19 1659.08,1077.81 1661.24,1078.43 1663.4,1079.05 1665.56,1079.66 1667.72,1080.27 1669.89,1080.88 1672.05,1081.48 1674.21,1082.08 1676.37,1082.67 1678.53,1083.27 1680.69,1083.86 1682.85,1084.44 1685.01,1085.02 1687.17,1085.6 1689.33,1086.18 1691.5,1086.75 1693.66,1087.32 1695.82,1087.89 1697.98,1088.46 1700.14,1089.02 1702.3,1089.57 1704.46,1090.13 1706.62,1090.68 1708.78,1091.23 1710.94,1091.77 1713.11,1092.32 1715.27,1092.86 1717.43,1093.39 1719.59,1093.93 1721.75,1094.46 1723.91,1094.98 1726.07,1095.51 1728.23,1096.03 1730.39,1096.55 1732.55,1097.07 1734.72,1097.58 1736.88,1098.09 1739.04,1098.6 1741.2,1099.1 1743.36,1099.6 1745.52,1100.1 1747.68,1100.6 1749.84,1101.09 1752,1101.58 1754.16,1102.07 1756.33,1102.56 1758.49,1103.04 1760.65,1103.52 1762.81,1104 1764.97,1104.47 1767.13,1104.94 1769.29,1105.41 1771.45,1105.88 1773.61,1106.34 1775.77,1106.8 1777.93,1107.26 1780.1,1107.72 1782.26,1108.17 1784.42,1108.62 1786.58,1109.07 1788.74,1109.52 1790.9,1109.96 1793.06,1110.4 1795.22,1110.84 1797.38,1111.28 1799.54,1111.71 1801.71,1112.14 1803.87,1112.57 1806.03,1113 1808.19,1113.42 1810.35,1113.84 1812.51,1114.26 1814.67,1114.68 1816.83,1115.09 1818.99,1115.51 1821.15,1115.92 1823.32,1116.32 1825.48,1116.73 1827.64,1117.13 1829.8,1117.53 1831.96,1117.93 1834.12,1118.33 1836.28,1118.72 1838.44,1119.11 1840.6,1119.5 1842.76,1119.89 1844.93,1120.28 1847.09,1120.66 1849.25,1121.04 1851.41,1121.42 1853.57,1121.8 1855.73,1122.17 1857.89,1122.54 1860.05,1122.91 1862.21,1123.28 1864.37,1123.65 1866.54,1124.01 1868.7,1124.37 1870.86,1124.73 1873.02,1125.09 1875.18,1125.45 1877.34,1125.8 1879.5,1126.15 1881.66,1126.5 1883.82,1126.85 1885.98,1127.2 1888.15,1127.54 1890.31,1127.88 1892.47,1128.22 1894.63,1128.56 1896.79,1128.9 1898.95,1129.23 1901.11,1129.56 1903.27,1129.89 1905.43,1130.22 1907.59,1130.55 1909.75,1130.87 1911.92,1131.2 1914.08,1131.52 1916.24,1131.84 1918.4,1132.15 1920.56,1132.47 1922.72,1132.78 1924.88,1133.1 1927.04,1133.41 1929.2,1133.72 1931.36,1134.02 1933.53,1134.33 1935.69,1134.63 1937.85,1134.93 1940.01,1135.23 1942.17,1135.53 1944.33,1135.83 1946.49,1136.12 1948.65,1136.42 1950.81,1136.71 1952.97,1137 1955.14,1137.29 1957.3,1137.57 1959.46,1137.86 1961.62,1138.14 1963.78,1138.42 1965.94,1138.7 1968.1,1138.98 1970.26,1139.26 1972.42,1139.53 1974.58,1139.81 1976.75,1140.08 1978.91,1140.35 1981.07,1140.62 1983.23,1140.89 1985.39,1141.16 1987.55,1141.42 1989.71,1141.68 1991.87,1141.95 1994.03,1142.21 1996.19,1142.46 1998.36,1142.72 2000.52,1142.98 2002.68,1143.23 2004.84,1143.49 2007,1143.74 2009.16,1143.99 2011.32,1144.24 2013.48,1144.48 2015.64,1144.73 2017.8,1144.97 2019.96,1145.22 2022.13,1145.46 2024.29,1145.7 2026.45,1145.94 2028.61,1146.18 2030.77,1146.41 2032.93,1146.65 2035.09,1146.88 2037.25,1147.11 2039.41,1147.35 2041.57,1147.58 2043.74,1147.8 2045.9,1148.03 2048.06,1148.26 2050.22,1148.48 2052.38,1148.71 2054.54,1148.93 2056.7,1149.15 2058.86,1149.37 2061.02,1149.59 2063.18,1149.8 2065.35,1150.02 2067.51,1150.23 2069.67,1150.45 2071.83,1150.66 2073.99,1150.87 2076.15,1151.08 2078.31,1151.29 2080.47,1151.5 2082.63,1151.7 2084.79,1151.91 2086.96,1152.11 2089.12,1152.32 2091.28,1152.52 2093.44,1152.72 2095.6,1152.92 2097.76,1153.12 2099.92,1153.31 2102.08,1153.51 2104.24,1153.7 2106.4,1153.9 2108.57,1154.09 2110.73,1154.28 2112.89,1154.47 2115.05,1154.66 2117.21,1154.85 2119.37,1155.04 2121.53,1155.23 2123.69,1155.41 2125.85,1155.6 2128.01,1155.78 2130.17,1155.96 2132.34,1156.14 2134.5,1156.32 2136.66,1156.5 2138.82,1156.68 2140.98,1156.86 2143.14,1157.03 2145.3,1157.21 2147.46,1157.38 2149.62,1157.56 2151.78,1157.73 2153.95,1157.9 2156.11,1158.07 2158.27,1158.24 2160.43,1158.41 2162.59,1158.57 2164.75,1158.74 2166.91,1158.91 2169.07,1159.07 2171.23,1159.23 2173.39,1159.4 2175.56,1159.56 2177.72,1159.72 2179.88,1159.88 2182.04,1160.04 2184.2,1160.2 2186.36,1160.35 2188.52,1160.51 2190.68,1160.67 2192.84,1160.82 2195,1160.97 2197.17,1161.13 2199.33,1161.28 2201.49,1161.43 2203.65,1161.58 2205.81,1161.73 2207.97,1161.88 2210.13,1162.03 2212.29,1162.17 2214.45,1162.32 2216.61,1162.47 2218.78,1162.61 2220.94,1162.75 2223.1,1162.9 2225.26,1163.04 2227.42,1163.18 2229.58,1163.32 2231.74,1163.46 2233.9,1163.6 2236.06,1163.74 2238.22,1163.88 2240.38,1164.01 2242.55,1164.15 2244.71,1164.28 2246.87,1164.42 2249.03,1164.55 2251.19,1164.68 2253.35,1164.82 2255.51,1164.95 2257.67,1165.08 2259.83,1165.21 2261.99,1165.34 2264.16,1165.47 2266.32,1165.59 2268.48,1165.72 2270.64,1165.85 2272.8,1165.97 2274.96,1166.1 2277.12,1166.22 2279.28,1166.35 2281.44,1166.47 2283.6,1166.59 2285.77,1166.71 2287.93,1166.83 2290.09,1166.95 2292.25,1167.07 2294.41,1167.19 2296.57,1167.31 2298.73,1167.43 2300.89,1167.54 2303.05,1167.66 2305.21,1167.77 2307.38,1167.89 2309.54,1168 2311.7,1168.12 2313.86,1168.23 2316.02,1168.34 2318.18,1168.45 2320.34,1168.57 2322.5,1168.68 2324.66,1168.79 2326.82,1168.9 2328.99,1169 2331.15,1169.11 2333.31,1169.22 2335.47,1169.33 2337.63,1169.43 2339.79,1169.54 2341.95,1169.64 2344.11,1169.75 2346.27,1169.85 2348.43,1169.95 2350.59,1170.06 2352.76,1170.16" style="stroke:#e26f46; stroke-linecap:round; stroke-linejoin:round; stroke-width:4; stroke-opacity:1; fill:none" clip-path="url(#clip952)"></polyline><path fill-opacity="1" fill-rule="evenodd" fill="#ffffff" d="M2014.59 322.316 L2280.8 322.316 L2280.8 166.796 L2014.59 166.796  Z" clip-path="url(#clip950)"></path><polyline points="2014.59,322.316 2280.8,322.316 2280.8,166.796 2014.59,166.796 2014.59,322.316" style="stroke:#000000; stroke-linecap:round; stroke-linejoin:round; stroke-width:4; stroke-opacity:1; fill:none" clip-path="url(#clip950)"></polyline><polyline points="2038.58,218.636 2182.5,218.636" style="stroke:#009af9; stroke-linecap:round; stroke-linejoin:round; stroke-width:4; stroke-opacity:1; fill:none" clip-path="url(#clip950)"></polyline><path fill-opacity="1" fill-rule="nonzero" fill="#000000" d="M2207.06 209.99 L2227.29 209.99 L2227.29 213.879 L2211.28 232.513 L2227.29 232.513 L2227.29 235.916 L2206.48 235.916 L2206.48 232.027 L2222.5 213.393 L2207.06 213.393 L2207.06 209.99 Z" clip-path="url(#clip950)"></path><polyline points="2038.58,270.476 2182.5,270.476" style="stroke:#e26f46; stroke-linecap:round; stroke-linejoin:round; stroke-width:4; stroke-opacity:1; fill:none" clip-path="url(#clip950)"></polyline><path fill-opacity="1" fill-rule="nonzero" fill="#000000" d="M2225.4 265.765 L2225.4 251.737 L2229.66 251.737 L2229.66 287.756 L2225.4 287.756 L2225.4 283.867 Q2224.05 286.182 2221.99 287.316 Q2219.96 288.427 2217.09 288.427 Q2212.39 288.427 2209.42 284.677 Q2206.48 280.927 2206.48 274.816 Q2206.48 268.705 2209.42 264.955 Q2212.39 261.205 2217.09 261.205 Q2219.96 261.205 2221.99 262.339 Q2224.05 263.45 2225.4 265.765 M2210.88 274.816 Q2210.88 279.515 2212.8 282.2 Q2214.75 284.862 2218.13 284.862 Q2221.51 284.862 2223.45 282.2 Q2225.4 279.515 2225.4 274.816 Q2225.4 270.117 2223.45 267.455 Q2221.51 264.77 2218.13 264.77 Q2214.75 264.77 2212.8 267.455 Q2210.88 270.117 2210.88 274.816 Z" clip-path="url(#clip950)"></path><path fill-opacity="1" fill-rule="nonzero" fill="#000000" d="M2236.58 261.83 L2256.81 261.83 L2256.81 265.719 L2240.79 284.353 L2256.81 284.353 L2256.81 287.756 L2236 287.756 L2236 283.867 L2252.02 265.233 L2236.58 265.233 L2236.58 261.83 Z" clip-path="url(#clip950)"></path></svg>
